<svg id="svg" version="1.1" xmlns="http://www.w3.org/2000/svg" xmlns:xlink="http://www.w3.org/1999/xlink" width="20" height="20" viewBox="0, 0, 400,400">
    <g id="svgg">
        <path id="path0" d="M184.658 33.528 C 173.061 36.675,163.367 44.348,157.874 54.726 C 156.406 57.498,125.072 112.517,88.243 176.992 C 46.630 249.839,20.475 296.421,19.154 300.038 C 8.731 328.575,27.026 360.779,56.641 366.026 C 65.740 367.638,334.084 367.681,342.969 366.072 C 366.343 361.838,381.205 344.863,383.579 319.688 C 385.125 303.290,393.083 319.038,315.404 184.766 C 238.065 51.082,241.768 57.447,239.026 53.463 C 227.817 37.171,203.749 28.346,184.658 33.528 M203.614 68.102 C 208.774 70.679,205.853 65.872,276.182 187.500 C 312.581 250.449,344.081 304.776,346.181 308.226 C 352.385 318.418,350.228 326.819,340.241 331.355 C 335.362 333.572,63.070 333.572,58.203 331.355 C 51.350 328.234,46.715 320.147,48.269 314.023 C 49.476 309.270,184.793 73.101,187.727 70.628 C 193.073 66.122,198.062 65.329,203.614 68.102 M196.484 133.152 C 196.055 133.320,194.743 133.669,193.569 133.927 C 190.918 134.511,186.295 138.496,184.530 141.718 C 183.331 143.906,183.203 147.923,183.203 183.264 L 183.203 222.388 185.547 226.162 C 191.695 236.064,208.304 236.065,214.453 226.163 L 216.797 222.389 216.797 183.985 L 216.797 145.581 214.432 141.757 C 210.785 135.856,201.258 131.289,196.484 133.152 M193.359 267.395 C 187.277 269.898,184.002 274.145,183.105 280.693 C 180.232 301.652,211.296 308.552,216.438 288.096 C 219.865 274.459,206.130 262.138,193.359 267.395 " stroke="none" fill="currentColor" fill-rule="evenodd"></path>
    </g>
</svg>