<?xml version="1.0" standalone="no"?>
<!DOCTYPE svg PUBLIC "-//W3C//DTD SVG 20010904//EN"
 "http://www.w3.org/TR/2001/REC-SVG-20010904/DTD/svg10.dtd">
<svg version="1.0" xmlns="http://www.w3.org/2000/svg"
 width="512.000000pt" height="512.000000pt" viewBox="0 0 512.000000 512.000000"
 preserveAspectRatio="xMidYMid meet">

<g transform="translate(0.000000,512.000000) scale(0.100000,-0.100000)"
fill="currentColor" stroke="none">
<path d="M2130 4671 c-345 -76 -631 -311 -764 -628 -170 -402 -79 -864 228
-1168 323 -320 788 -403 1203 -215 198 90 389 272 493 471 90 172 126 341 117
547 -19 471 -335 859 -799 982 -119 32 -358 37 -478 11z m370 -423 c25 -6 83
-28 130 -50 119 -56 231 -169 288 -289 103 -216 89 -442 -40 -634 -66 -100
-144 -167 -253 -220 -113 -55 -186 -69 -318 -63 -256 13 -471 175 -565 426
-33 89 -42 255 -18 356 58 247 275 446 530 487 59 9 180 3 246 -13z"/>
<path d="M4136 2419 c-21 -5 -71 -26 -110 -46 -64 -33 -118 -84 -577 -542
-456 -456 -510 -512 -538 -571 -39 -80 -144 -591 -135 -651 15 -94 94 -169
186 -177 78 -6 551 89 638 129 60 28 106 71 577 542 551 552 551 552 588 694
67 255 -90 535 -342 613 -70 22 -214 26 -287 9z m173 -424 c33 -17 41 -33 41
-83 0 -35 -22 -58 -466 -502 l-465 -466 -80 -16 c-80 -15 -80 -15 -76 6 3 12
10 46 16 76 l12 56 472 472 c346 346 479 472 495 472 13 0 36 -7 51 -15z"/>
<path d="M1381 2340 c-365 -51 -658 -331 -726 -693 -24 -128 -18 -856 8 -934
25 -75 97 -167 166 -212 105 -67 89 -66 768 -66 l611 0 44 30 c138 97 118 306
-34 370 -32 13 -113 15 -577 15 -297 0 -546 3 -555 6 -14 5 -16 46 -16 358 0
395 2 409 69 513 75 116 192 182 343 191 l86 5 99 -51 c208 -106 382 -151 618
-159 196 -7 321 7 383 43 62 37 95 92 100 168 5 74 -16 125 -72 174 -57 50
-96 57 -238 43 -242 -24 -441 21 -662 147 l-100 56 -125 2 c-70 2 -155 -1
-190 -6z"/>
</g>
</svg>
