<svg id="svg" xmlns="http://www.w3.org/2000/svg" xmlns:xlink="http://www.w3.org/1999/xlink" width="20" height="20" viewBox="0, 0, 400,400"><g id="svgg"><path id="path0" d="M219.141 1.169 C 140.170 12.441,110.202 77.255,129.013 196.094 C 133.851 226.660,133.583 230.495,126.608 230.452 C 112.500 230.365,105.982 213.022,105.899 175.351 C 105.845 150.421,105.287 148.707,96.660 146.933 C 79.367 143.375,58.833 163.930,48.418 195.225 C 30.133 250.166,45.782 311.745,88.787 354.073 C 187.143 450.881,351.336 386.222,359.019 247.656 C 361.585 201.377,334.939 155.625,286.328 122.844 C 245.869 95.561,233.731 61.427,250.497 22.077 C 258.808 2.573,250.080 -3.247,219.141 1.169 M223.121 26.367 C 209.585 70.296,227.668 112.989,272.553 143.072 C 313.923 170.798,336.974 209.102,334.788 246.484 C 327.875 364.701,188.545 419.060,105.445 335.961 C 65.655 296.170,53.765 236.051,76.635 190.283 C 80.962 181.622,80.985 181.626,81.614 191.152 C 84.422 233.684,102.299 257.013,130.015 254.312 C 155.441 251.835,160.385 238.191,152.811 191.406 C 145.390 145.562,146.546 101.622,155.821 76.981 C 167.175 46.816,190.377 28.772,222.514 25.117 C 223.152 25.044,223.383 25.519,223.121 26.367 " stroke="none" fill="currentColor" fill-rule="evenodd"></path></g></svg>