<svg id="svg" xmlns="http://www.w3.org/2000/svg" xmlns:xlink="http://www.w3.org/1999/xlink" width="20" height="20" viewBox="0, 0, 400,400"><g id="svgg"><path id="path0" d="M192.478 0.947 C 180.750 4.725,173.424 21.651,178.749 32.671 L 180.327 35.937 177.300 35.938 C 132.330 35.938,66.489 67.525,39.844 101.884 L 37.109 105.410 23.985 105.439 C 5.034 105.482,0.000 108.767,0.000 121.094 C 0.000 132.658,5.468 136.719,21.037 136.719 L 30.406 136.719 30.677 225.586 C 30.982 325.796,30.555 318.778,37.194 332.618 C 41.801 342.222,44.453 344.141,53.125 344.141 C 66.427 344.141,72.597 332.844,66.509 319.636 C 62.470 310.873,62.500 311.610,62.500 221.378 L 62.500 136.719 199.540 136.719 L 336.581 136.719 336.856 156.445 C 337.233 183.436,340.101 188.404,354.700 187.348 C 366.842 186.470,368.750 182.266,368.750 156.394 L 368.750 136.719 378.711 136.702 C 394.773 136.674,399.609 133.062,399.609 121.094 C 399.609 108.495,395.094 105.531,375.781 105.448 L 362.891 105.393 359.375 101.070 C 330.055 65.018,281.384 41.152,227.237 36.275 L 221.270 35.738 222.836 32.198 C 230.764 14.274,211.779 -5.270,192.478 0.947 M224.609 68.064 C 258.415 71.262,295.393 85.469,315.625 103.032 L 318.359 105.405 200.168 105.437 L 81.977 105.469 84.582 103.182 C 114.314 77.077,170.619 62.956,224.609 68.064 M292.969 207.394 C 292.324 207.547,289.160 208.094,285.938 208.610 C 222.030 218.841,187.819 290.499,218.434 350.000 C 248.580 408.588,334.764 417.596,377.012 366.573 C 423.149 310.853,396.980 227.839,327.539 209.631 C 320.448 207.772,297.608 206.294,292.969 207.394 M320.180 240.970 C 367.217 253.267,383.849 312.536,350.158 347.800 C 308.441 391.465,236.014 360.229,239.322 300.000 C 241.595 258.614,280.113 230.495,320.180 240.970 M296.898 256.664 C 288.553 260.412,287.891 262.679,287.891 287.500 L 287.891 308.203 290.060 311.893 C 291.399 314.171,293.518 316.339,295.597 317.557 L 298.965 319.531 320.033 319.531 L 341.100 319.531 344.656 317.276 C 353.977 311.365,353.977 296.448,344.656 290.536 C 341.179 288.331,340.862 288.281,330.316 288.281 L 319.531 288.281 319.531 277.590 C 319.531 264.997,318.374 261.481,313.078 257.976 C 309.165 255.386,301.184 254.740,296.898 256.664 M131.537 291.751 C 121.378 296.172,100.111 321.601,94.582 335.938 C 76.243 383.490,135.530 422.346,171.516 386.360 C 191.894 365.982,189.934 337.441,166.979 320.301 C 156.428 312.422,155.572 311.377,154.972 305.630 C 153.742 293.867,142.278 287.077,131.537 291.751 M144.942 344.073 C 152.585 349.654,153.125 350.316,153.125 354.094 C 153.125 367.438,134.517 373.119,126.261 362.296 C 121.113 355.546,122.457 348.372,131.024 336.882 L 132.942 334.310 135.827 336.916 C 137.414 338.350,141.516 341.570,144.942 344.073 " stroke="none" fill="currentColor" fill-rule="evenodd"></path></g></svg>