<svg id="svg" version="1.1" xmlns="http://www.w3.org/2000/svg" xmlns:xlink="http://www.w3.org/1999/xlink" width="400" height="460" viewBox="0, 0, 400,460"><g id="svgg"><path id="path0" d="M65.578 3.959 C 32.811 32.728,5.857 93.652,1.047 149.815 C -9.667 274.912,85.675 386.751,212.813 398.221 L 222.500 399.095 222.500 419.547 L 222.500 440.000 166.154 440.000 L 109.808 440.000 106.154 443.654 C 101.528 448.280,101.533 451.725,106.172 456.364 L 109.844 460.036 233.782 459.705 L 357.721 459.375 360.111 456.424 C 363.437 452.316,363.156 446.793,359.432 443.068 L 356.364 440.000 299.432 440.000 L 242.500 440.000 242.500 419.375 L 242.500 398.750 249.876 398.750 C 281.613 398.750,329.076 382.521,362.306 360.306 C 394.267 338.939,405.399 325.399,397.500 317.500 C 392.509 312.509,387.955 314.077,375.625 325.035 C 241.379 444.342,27.292 354.673,20.397 176.250 C 18.206 119.540,36.420 67.132,73.066 24.701 C 83.929 12.123,85.255 7.349,79.206 2.591 C 74.608 -1.026,70.823 -0.646,65.578 3.959 M204.375 5.579 C 82.169 27.965,27.421 181.280,109.162 272.210 C 195.788 368.573,348.067 337.276,387.958 214.909 C 424.535 102.707,320.670 -15.725,204.375 5.579 M250.303 24.537 C 252.118 25.058,251.428 26.455,246.174 32.894 C 229.438 53.407,222.867 74.282,221.312 111.875 C 219.821 147.898,217.256 155.106,201.347 167.960 C 196.525 171.856,189.119 179.112,184.889 184.084 C 172.309 198.873,168.412 200.586,162.188 194.063 C 157.542 189.192,156.250 184.905,156.250 174.355 C 156.250 153.411,150.791 143.630,124.516 117.500 C 104.546 97.641,105.786 101.641,115.163 87.324 C 144.570 42.427,208.768 12.601,250.303 24.537 M285.198 34.358 C 316.311 47.000,346.184 74.930,361.368 105.573 L 366.440 115.809 361.274 128.842 C 355.194 144.183,350.609 151.718,343.199 158.548 C 332.888 168.052,332.595 168.122,302.500 168.154 C 266.341 168.193,256.602 171.363,244.857 186.919 C 229.218 207.633,230.351 230.027,248.422 257.387 C 258.159 272.128,261.227 278.713,266.130 295.395 C 269.546 307.020,270.692 305.545,256.342 307.991 C 152.383 325.715,60.628 219.004,97.455 123.204 L 98.866 119.533 112.603 133.204 C 133.883 154.381,135.318 156.902,136.343 174.919 C 138.827 218.552,170.452 231.749,196.879 200.178 C 201.403 194.774,208.705 187.431,213.105 183.860 C 233.817 167.056,238.766 154.223,240.627 112.500 C 242.247 76.163,248.880 58.021,267.393 39.290 C 276.567 30.008,275.334 30.350,285.198 34.358 M376.162 165.092 C 376.538 216.235,347.058 265.949,300.701 292.352 C 286.921 300.200,288.402 300.893,283.167 284.142 C 278.320 268.635,274.369 260.534,265.603 248.125 C 250.300 226.463,249.892 207.884,264.440 195.110 C 272.040 188.438,273.437 188.186,303.125 188.137 C 341.321 188.074,351.939 183.445,367.095 160.249 C 375.572 147.274,376.033 147.520,376.162 165.092 " stroke="none" fill="currentColor" fill-rule="evenodd"></path></g></svg>