<svg id="svg" xmlns="http://www.w3.org/2000/svg" xmlns:xlink="http://www.w3.org/1999/xlink" width="20" height="20" viewBox="0, 0, 400,400"><g id="svgg"><path id="path0" d="M180.469 1.106 C 149.685 6.573,124.156 21.614,106.908 44.448 L 102.545 50.224 91.311 50.418 C -11.279 52.194,-36.211 193.530,59.961 228.140 L 64.844 229.897 64.844 285.697 C 64.844 322.143,65.140 343.404,65.697 346.994 C 69.603 372.172,87.961 392.163,112.954 398.455 C 122.668 400.901,192.425 400.514,195.797 397.996 C 206.344 390.119,205.536 375.891,194.188 369.670 C 192.079 368.514,187.548 368.313,155.840 367.969 L 119.883 367.578 114.742 365.046 C 108.334 361.889,103.069 356.391,99.754 349.393 L 97.266 344.141 97.016 316.992 L 96.767 289.844 132.393 289.844 C 171.678 289.844,171.167 289.902,175.515 284.949 C 182.371 277.141,180.454 264.664,171.679 259.976 C 168.387 258.218,168.063 258.201,132.617 257.971 L 96.875 257.739 96.875 235.606 C 96.875 205.265,96.453 204.436,78.782 200.065 C 9.054 182.818,20.472 82.649,92.188 82.463 C 122.596 82.384,148.524 107.064,151.550 138.969 C 153.897 163.711,183.514 163.797,183.573 139.063 C 183.642 110.566,167.264 81.067,142.383 64.873 C 134.715 59.881,134.868 60.628,140.430 55.351 C 178.587 19.150,243.394 25.789,270.313 68.656 C 280.435 84.776,282.641 85.903,298.632 83.115 C 346.442 74.781,382.944 124.471,361.141 168.207 C 354.205 182.119,355.914 191.471,366.186 195.813 C 375.172 199.610,383.184 195.564,389.390 184.093 C 421.960 123.898,377.730 50.475,308.855 50.403 L 297.008 50.391 294.402 46.489 C 283.930 30.807,261.480 14.180,240.625 6.660 C 224.285 0.769,196.709 -1.777,180.469 1.106 M295.313 206.994 C 235.546 213.295,197.736 264.140,208.964 323.111 C 225.392 409.386,342.324 428.558,387.116 352.321 C 426.499 285.287,371.939 198.916,295.313 206.994 M319.465 240.685 C 367.925 252.895,384.387 313.415,348.901 348.901 C 307.821 389.981,239.454 361.624,239.479 303.516 C 239.499 260.203,277.731 230.171,319.465 240.685 M300.045 255.581 C 289.556 257.512,287.891 261.893,287.891 287.561 L 287.891 308.326 290.234 312.110 C 294.604 319.165,296.064 319.531,319.798 319.531 C 346.410 319.531,350.526 317.702,351.410 305.481 C 352.320 292.903,346.623 288.184,329.883 287.649 L 319.531 287.319 319.531 277.228 C 319.531 259.741,313.549 253.095,300.045 255.581 " stroke="none" fill="currentColor" fill-rule="evenodd"></path></g></svg>