<svg id="svg" xmlns="http://www.w3.org/2000/svg" xmlns:xlink="http://www.w3.org/1999/xlink" width="20" height="20" viewBox="0, 0, 400,400"><g id="svgg"><path id="path0" d="M186.674 49.443 C 167.997 55.810,157.031 71.209,157.031 91.068 L 157.031 99.159 153.711 100.024 C 78.467 119.637,24.390 183.270,16.796 261.133 L 16.282 266.406 11.944 266.406 C 2.474 266.406,-0.432 270.684,0.216 283.671 C 1.754 314.468,23.409 341.076,54.297 350.123 L 60.547 351.953 199.609 351.953 L 338.672 351.953 345.655 349.765 C 377.679 339.733,400.018 311.305,399.995 280.613 C 399.987 270.405,396.646 266.421,388.086 266.411 C 385.502 266.408,383.594 266.061,383.594 265.594 C 383.594 258.532,380.037 238.288,376.804 226.953 C 359.185 165.177,308.204 115.585,246.289 99.995 L 242.969 99.159 242.949 90.790 C 242.877 61.044,214.279 40.032,186.674 49.443 M208.039 73.526 C 214.668 76.852,218.173 82.147,219.101 90.234 L 219.639 94.922 200.000 94.922 L 180.361 94.922 180.899 90.234 C 182.543 75.904,196.121 67.545,208.039 73.526 M218.750 119.594 C 293.031 128.530,350.098 186.618,358.949 262.305 L 359.429 266.406 200.000 266.406 L 40.571 266.406 41.051 262.305 C 51.570 172.356,130.488 108.977,218.750 119.594 M373.894 291.992 C 370.509 306.696,353.570 322.383,335.938 327.144 C 328.004 329.287,70.283 329.261,62.500 327.117 C 45.957 322.560,31.913 309.692,26.586 294.208 L 25.084 289.844 199.736 289.844 L 374.388 289.844 373.894 291.992 " stroke="none" fill="currentColor" fill-rule="evenodd"></path></g></svg>