<?xml version="1.0" standalone="no"?>
<!DOCTYPE svg PUBLIC "-//W3C//DTD SVG 20010904//EN"
 "http://www.w3.org/TR/2001/REC-SVG-20010904/DTD/svg10.dtd">
<svg version="1.0" xmlns="http://www.w3.org/2000/svg"
 width="20" height="20" viewBox="0 0 512.000000 512.000000"
 preserveAspectRatio="xMidYMid meet">

<g transform="translate(0.000000,512.000000) scale(0.100000,-0.100000)"
fill="currentColor" stroke="none">
<path d="M2171 5102 c-55 -27 -76 -64 -76 -132 0 -111 55 -150 212 -150 l103
0 0 -140 0 -140 -497 0 c-546 0 -568 -2 -707 -60 -193 -81 -360 -239 -446
-422 -61 -130 -72 -186 -79 -398 l-6 -195 -205 -5 c-227 -6 -242 -9 -280 -73
-40 -64 -13 -162 53 -203 28 -17 56 -19 235 -22 l202 -3 0 -793 0 -793 23 -33
c49 -73 55 -75 293 -78 l214 -3 0 -123 c0 -342 131 -662 374 -915 200 -207
445 -342 723 -398 120 -24 385 -24 503 0 196 39 403 129 550 241 349 262 550
655 550 1072 l0 123 214 3 c238 3 244 5 294 78 l22 33 0 793 0 793 204 3 c189
3 207 5 233 24 71 52 93 136 53 201 -38 64 -53 67 -280 73 l-205 5 -6 195 c-5
177 -8 203 -34 280 -48 149 -98 232 -204 344 -101 105 -218 178 -366 227 -69
23 -75 24 -597 27 l-528 3 0 139 0 140 103 0 c157 0 212 39 212 150 0 67 -20
102 -75 131 -32 18 -63 19 -390 19 -318 0 -359 -2 -389 -18z m1570 -878 c146
-43 280 -155 342 -285 48 -100 57 -155 57 -329 l0 -150 -1580 0 -1580 0 0 150
c0 174 9 229 57 328 60 128 179 230 323 279 l65 22 1131 1 c1006 0 1136 -2
1185 -16z m399 -1764 l0 -700 -144 0 -144 0 -18 53 c-9 28 -37 92 -62 142
-303 608 -996 897 -1637 684 -347 -116 -623 -355 -787 -684 -25 -50 -53 -114
-62 -142 l-18 -53 -144 0 -144 0 0 700 0 700 1580 0 1580 0 0 -700z m-1330
-81 c300 -77 546 -270 684 -539 84 -164 116 -297 116 -485 0 -295 -101 -539
-309 -745 -143 -142 -297 -229 -496 -281 -77 -20 -113 -23 -250 -23 -139 1
-173 4 -256 27 -303 80 -547 280 -684 560 -167 342 -139 739 75 1058 54 80
196 222 275 274 129 85 300 153 437 174 101 16 309 6 408 -20z"/>
<path d="M2945 1891 c-22 -11 -79 -55 -126 -98 -47 -43 -125 -113 -172 -157
l-87 -78 -82 77 c-104 98 -116 105 -170 107 -107 2 -179 -91 -149 -192 9 -30
44 -69 164 -180 83 -78 162 -146 175 -151 38 -15 105 -10 137 10 30 18 453
399 489 440 30 33 33 126 7 168 -38 61 -121 85 -186 54z"/>
</g>
</svg>
